<svg id="Ebene_1" data-name="Ebene 1" xmlns="http://www.w3.org/2000/svg" viewBox="0 0 1000 1000"><path class="cls-1" d="M839.54,223.68c-106.78-59.42-242-20.9-301.43,85.88a222.14,222.14,0,0,0-28,105l-1,378a13.85,13.85,0,0,0,21.18,11.78L851.06,604.14a222,222,0,0,0,74.36-79C984.84,418.33,946.32,283.11,839.54,223.68ZM677.88,514.16a110.81,110.81,0,1,1,150.71-42.94A110.93,110.93,0,0,1,677.88,514.16Z"/><path class="cls-1" d="M161.81,220.8c-107.19,58.68-146.65,193.64-88,300.82a222.09,222.09,0,0,0,73.92,79.61L467,803.54A13.86,13.86,0,0,0,488.3,791.9l1.58-378.1a222,222,0,0,0-27.25-105C404,201.58,269,162.12,161.81,220.8ZM321.45,512.39a110.81,110.81,0,1,1,44-150.41A110.94,110.94,0,0,1,321.45,512.39Z"/></svg>